<svg width="35" height="46" viewBox="0 0 35 46" fill="none" xmlns="http://www.w3.org/2000/svg">
<path d="M17.385 41.5268C16.8591 41.5268 16.4209 41.1324 16.4209 40.5627V34.8218C16.4209 34.2959 16.8153 33.8577 17.385 33.8577C17.9109 33.8577 18.3491 34.2521 18.3491 34.8218V40.5627C18.3491 41.0885 17.9109 41.5268 17.385 41.5268Z" fill="white"/>
<path d="M33.5561 45.8654H1.21436C0.68848 45.8654 0.250244 45.471 0.250244 44.9013V21.1489C0.250244 20.623 0.644656 20.1848 1.21436 20.1848H33.4685C33.9943 20.1848 34.4326 20.5792 34.4326 21.1489V44.8575C34.4764 45.3833 34.082 45.8654 33.5561 45.8654ZM2.2223 43.981H32.592V22.0692H2.2223V43.981Z" fill="white"/>
<path d="M27.8593 22.0693H6.95545C6.42957 22.0693 5.99133 21.6749 5.99133 21.1052V11.6394C5.99133 5.32877 11.1187 0.245239 17.3854 0.245239C23.6522 0.245239 28.7796 5.37259 28.7796 11.6394V21.1491C28.7796 21.6749 28.3413 22.0693 27.8593 22.0693ZM7.87574 20.1849H26.8951V11.6394C26.8951 6.42435 22.6004 2.12965 17.3854 2.12965C12.1704 2.12965 7.87574 6.42435 7.87574 11.6394V20.1849Z" fill="white"/>
<path d="M17.385 35.3483C14.7995 35.3483 12.6083 33.201 12.6083 30.5716C12.6083 27.986 14.7556 25.7948 17.385 25.7948C19.9706 25.7948 22.1618 27.9422 22.1618 30.5716C22.1618 33.201 19.9706 35.3483 17.385 35.3483ZM17.385 27.8107C15.8074 27.8107 14.5365 29.0377 14.5365 30.6592C14.5365 32.2369 15.7636 33.5077 17.385 33.5077C19.0065 33.5077 20.2336 32.2807 20.2336 30.6592C20.2336 29.0377 18.9627 27.8107 17.385 27.8107Z" fill="white"/>
</svg>
