<svg width="45" height="30" viewBox="0 0 45 30" fill="none" xmlns="http://www.w3.org/2000/svg">
<path d="M42.27 0.604126H3.30656C1.9181 0.604126 0.833374 1.68885 0.833374 3.07731V27.462C0.833374 28.8505 1.9181 29.9352 3.30656 29.9352H42.3568C43.7453 29.9352 44.83 28.8505 44.83 27.462V3.07731C44.7866 1.68885 43.6585 0.604126 42.27 0.604126ZM2.65572 3.68475L14.4576 14.9659L2.65572 26.7678V3.68475ZM25.7388 17.6127C24.1334 19.1313 21.4866 19.1313 19.8812 17.6127L4.00078 2.42647H41.6192L25.7388 17.6127ZM15.7592 16.1808L18.5362 18.871C20.8792 21.1272 24.6106 21.1272 26.9537 18.871L29.7306 16.1808L41.6192 28.0695H4.00078L15.7592 16.1808ZM31.1624 14.9659L42.9643 3.68475V26.7678L31.1624 14.9659Z" fill="white"/>
</svg>
