<svg width="23" height="33" viewBox="0 0 23 33" fill="none" xmlns="http://www.w3.org/2000/svg">
<path d="M17.186 16.954C17.3266 17.0433 17.4657 17.1355 17.6027 17.2314H17.6037L17.6426 17.259C20.4282 19.2321 22.1419 22.3465 22.147 25.8189C22.1474 26.0393 22.148 26.2598 22.1486 26.4805C22.1505 27.1429 22.1524 27.8064 22.147 28.4695C22.1343 30.1443 21.0186 31.6739 19.3733 32.0525C18.9214 32.1567 18.4545 32.1524 18.0124 32.1484C17.9283 32.1477 17.8451 32.1469 17.7631 32.1469H4.49017H4.48776L4.48776 32.1469C2.87835 32.121 1.42628 31.0288 1.01848 29.4248L1.01848 29.4248C0.90969 28.9966 0.875902 28.5407 0.865743 28.0916C0.86077 27.8718 0.861447 27.6517 0.862109 27.4365L0.862154 27.4218L17.186 16.954ZM17.186 16.954C19.4207 15.0423 20.65 12.108 20.3714 9.11537C20.1046 6.24776 18.4997 3.63254 16.0657 2.14066L16.0657 2.14064C13.5717 0.612578 10.4417 0.437612 7.78643 1.63587L7.7864 1.63589C5.17634 2.81448 3.20797 5.30326 2.6514 8.14874L17.186 16.954ZM20.8703 29.6481L20.8703 29.648C21.0913 29.1938 21.1271 28.7123 21.1271 28.1864C21.1271 27.8952 21.1296 27.605 21.132 27.3154C21.1374 26.681 21.1428 26.0496 21.1221 25.4179C21.0098 21.9935 18.9465 19.0846 16.028 17.4599C15.8465 17.3592 15.7697 17.1825 15.7772 17.0109C15.7844 16.8445 15.8702 16.679 16.0138 16.5764L16.014 16.5763C18.6138 14.7265 19.8918 11.3757 19.2109 8.22383C18.6749 5.74527 16.9925 3.64455 14.7243 2.58636C12.378 1.49198 9.56518 1.67356 7.35831 3.02534L7.3583 3.02534C5.224 4.33247 3.75494 6.65469 3.52696 9.18146C3.26631 12.071 4.56642 14.913 6.90446 16.5763C7.04871 16.6785 7.13444 16.844 7.1416 17.0105C7.14898 17.1822 7.07188 17.3588 6.89059 17.4598C5.59616 18.1819 4.46232 19.1835 3.61234 20.4104L3.61234 20.4104C2.85 21.5106 2.31654 22.756 2.04876 24.0734C1.86314 24.9865 1.85328 25.8964 1.87838 26.8369C1.87838 26.8369 1.87838 26.8369 1.87838 26.8369L20.8703 29.6481ZM20.8703 29.6481C20.5527 30.3016 19.9773 30.8045 19.2902 31.0095M20.8703 29.6481L19.2902 31.0095M19.2902 31.0095C18.9032 31.1249 18.5028 31.1215 18.0776 31.1178C18.0021 31.1172 17.9258 31.1165 17.8486 31.1165H4.49147L19.2902 31.0095ZM1.13149 23.4993C0.874899 24.5884 0.828189 25.6764 0.857845 26.7777L2.6514 8.14876C2.00466 11.4539 3.23239 14.8238 5.73639 16.9573C3.45624 18.4502 1.76627 20.8028 1.13149 23.4993Z" fill="white" stroke="white" stroke-width="0.3"/>
<path d="M18.2937 21.9458C17.8187 21.212 17.1774 20.6359 16.482 20.1472L15.9462 21.023C17.1467 21.8672 17.9556 23.003 18.0882 24.489L18.0882 24.489C18.1175 24.8153 18.3889 24.9749 18.628 24.9757C18.7485 24.976 18.8751 24.9375 18.9704 24.8483C19.0694 24.7555 19.1203 24.6211 19.1062 24.4623L19.1062 24.4623C19.0348 23.6626 18.8321 22.8808 18.4333 22.1773H18.4436L18.2937 21.9458Z" fill="white" stroke="white" stroke-width="0.3"/>
</svg>
