<svg width="25" height="26" viewBox="0 0 25 26" fill="none" xmlns="http://www.w3.org/2000/svg">
<path d="M7.125 18.2569L7.0275 18.3585L8.84344 20.1785L18.0125 10.9932C18.6522 10.2757 18.9929 9.34064 18.9649 8.37986C18.9368 7.41908 18.542 6.50549 17.8616 5.8266C17.1811 5.14772 16.2666 4.75505 15.3058 4.72919C14.345 4.70332 13.4107 5.04624 12.6947 5.68754L7.20625 11.1638L2.52625 15.8438C1.94798 16.3903 1.48518 17.0473 1.16521 17.7758C0.845247 18.5043 0.674612 19.2896 0.663399 20.0852C0.652187 20.8808 0.800624 21.6706 1.09993 22.4079C1.39924 23.1451 1.84334 23.8149 2.40598 24.3775C2.96862 24.9401 3.63836 25.3842 4.37561 25.6835C5.11285 25.9829 5.90263 26.1313 6.69824 26.1201C7.49385 26.1089 8.27913 25.9382 9.00765 25.6183C9.73617 25.2983 10.3931 24.8355 10.9397 24.2572L15.7781 19.4188L21.5469 13.6541C22.3291 12.9197 22.9558 12.0355 23.3896 11.0541C23.8234 10.0727 24.0556 9.01418 24.0723 7.94132C24.089 6.86846 23.8899 5.80318 23.4869 4.80878C23.0838 3.81437 22.485 2.91111 21.726 2.15267C20.967 1.39422 20.0633 0.796057 19.0686 0.393708C18.0739 -0.0086412 17.0085 -0.206967 15.9357 -0.189489C14.8628 -0.172011 13.8044 0.0609148 12.8234 0.495452C11.8423 0.929989 10.9586 1.55727 10.2247 2.34004L0.21875 12.346L0.117188 12.4475L1.93719 14.2675L12.0447 4.16004C12.5417 3.62499 13.1414 3.19564 13.8082 2.89768C14.4749 2.59972 15.1948 2.43927 15.9249 2.4259C16.6551 2.41254 17.3804 2.54654 18.0576 2.8199C18.7347 3.09326 19.3498 3.50037 19.8661 4.01688C20.3823 4.53338 20.7891 5.14868 21.0621 5.82599C21.3351 6.5033 21.4687 7.2287 21.4549 7.95883C21.4412 8.68896 21.2804 9.40882 20.982 10.0754C20.6837 10.7419 20.2541 11.3415 19.7188 11.8382L14.7625 16.8066L9.12375 22.4372C8.4802 23.0615 7.61523 23.4048 6.71875 23.3919C5.8282 23.3988 4.97051 23.056 4.33 22.4372C3.6969 21.8035 3.34129 20.9443 3.34129 20.0485C3.34129 19.1527 3.6969 18.2935 4.33 17.6597L7.55563 14.4341L14.5147 7.49535C14.7411 7.28047 15.0414 7.16068 15.3536 7.16068C15.6658 7.16068 15.966 7.28047 16.1925 7.49535C16.3027 7.60551 16.3901 7.73629 16.4497 7.88023C16.5094 8.02417 16.54 8.17845 16.54 8.33426C16.54 8.49006 16.5094 8.64434 16.4497 8.78828C16.3901 8.93222 16.3027 9.06301 16.1925 9.17316L7.125 18.2569Z" fill="white"/>
</svg>
